<?xml version="1.0" encoding="utf-8"?>
<!-- Generator: Adobe Illustrator 16.0.0, SVG Export Plug-In . SVG Version: 6.00 Build 0)  -->
<!DOCTYPE svg PUBLIC "-//W3C//DTD SVG 1.1//EN" "http://www.w3.org/Graphics/SVG/1.1/DTD/svg11.dtd">
<svg version="1.1" id="Layer_1" xmlns="http://www.w3.org/2000/svg" xmlns:xlink="http://www.w3.org/1999/xlink" x="0px" y="0px"
	 width="512px" height="512px" viewBox="0 0 512 512" enable-background="new 0 0 512 512" xml:space="preserve">
<path stroke="#000000" stroke-miterlimit="10" d="M199.293,157.541c0,19.758-16.017,35.775-35.775,35.775
	s-35.775-16.017-35.775-35.775s16.017-35.775,35.775-35.775C203.019,121.766,199.293,121.837,199.293,157.541z"/>
<circle fill="#FFFFFF" cx="156.703" cy="139.546" r="8.141"/>
<circle fill="#FFFFFF" cx="143.62" cy="152.628" r="4.826"/>
<circle fill="#FFFFFF" cx="155.863" cy="162.713" r="3.812"/>
<path stroke="#000000" stroke-miterlimit="10" d="M168.293,362.041c0,28.318-22.957,51.275-51.275,51.275
	s-51.275-22.957-51.275-51.275s22.957-51.275,51.275-51.275C173.633,310.766,168.293,310.867,168.293,362.041z"/>
<circle fill="#FFFFFF" cx="107.25" cy="336.25" r="11.668"/>
<circle fill="#FFFFFF" cx="88.5" cy="355" r="6.918"/>
<circle fill="#FFFFFF" cx="106.046" cy="369.453" r="5.464"/>
<path stroke="#000000" stroke-miterlimit="10" d="M422.293,145.041c0,28.318-22.957,51.275-51.275,51.275
	s-51.275-22.957-51.275-51.275c0-28.319,22.957-51.275,51.275-51.275C427.633,93.766,422.293,93.868,422.293,145.041z"/>
<circle fill="#FFFFFF" cx="361.25" cy="119.25" r="11.668"/>
<circle fill="#FFFFFF" cx="342.5" cy="138" r="6.918"/>
<circle fill="#FFFFFF" cx="360.046" cy="152.454" r="5.464"/>
<path fill="none" stroke="#000000" stroke-width="8" stroke-miterlimit="10" d="M421.823,321.387
	c0,36.291-29.42,65.711-65.71,65.711c-36.291,0-65.711-29.42-65.711-65.711c0-36.29,29.42-65.71,65.711-65.71
	C435.737,255.677,421.823,246.312,421.823,321.387z"/>
<circle fill="none" stroke="#000000" stroke-width="3" stroke-miterlimit="10" cx="348.646" cy="293.177" r="15.765"/>
<circle cx="324.86" cy="321.111" r="10.233"/>
<circle cx="346.847" cy="337.291" r="7.329"/>
<path fill="none" stroke="#000000" stroke-width="8" stroke-miterlimit="10" d="M247.387,245.105
	c0,17.116-13.875,30.992-30.992,30.992c-17.116,0-30.992-13.876-30.992-30.992c0-17.117,13.876-30.992,30.992-30.992
	C253.949,214.113,247.387,209.696,247.387,245.105z"/>
<circle fill="none" stroke="#000000" stroke-width="3" stroke-miterlimit="10" cx="212.873" cy="231.8" r="7.436"/>
<circle cx="201.654" cy="244.976" r="4.826"/>
<circle cx="212.025" cy="252.606" r="3.457"/>
</svg>
