<?xml version="1.0" encoding="utf-8"?>
<!-- Generator: Adobe Illustrator 16.0.0, SVG Export Plug-In . SVG Version: 6.00 Build 0)  -->
<!DOCTYPE svg PUBLIC "-//W3C//DTD SVG 1.1//EN" "http://www.w3.org/Graphics/SVG/1.1/DTD/svg11.dtd">
<svg version="1.1" id="Layer_1" xmlns="http://www.w3.org/2000/svg" xmlns:xlink="http://www.w3.org/1999/xlink" x="0px" y="0px"
	 width="512px" height="512px" viewBox="0 0 512 512" enable-background="new 0 0 512 512" xml:space="preserve">
<g>
	<path d="M418.628,87.771c-12.775-13.094-34.38-15.398-75.052-15.398c-10.315,0-21.665,0.15-34.806,0.324
		c-16.508,0.218-35.218,0.466-56.524,0.466c-98.39,0-178.435,80.045-178.435,178.435c0,98.39,80.045,178.436,178.435,178.436
		s178.435-80.046,178.435-178.436c0-25.927,0.536-47.651,1.01-66.818C433.031,130.479,433.704,103.224,418.628,87.771z
		 M419.694,184.482c-0.476,19.237-1.014,41.04-1.014,67.115c0,91.772-74.662,166.436-166.435,166.436S85.811,343.369,85.811,251.597
		S160.474,85.162,252.246,85.162c21.387,0,40.139-0.248,56.683-0.467c13.099-0.173,24.411-0.323,34.647-0.323
		c36.459,0,56.748,1.822,66.462,11.778C421.583,107.984,420.912,135.155,419.694,184.482z"/>
	<path d="M227.75,109.491c-29.643,0-53.759,24.116-53.759,53.759s24.116,53.759,53.759,53.759c29.644,0,53.76-24.116,53.76-53.759
		S257.394,109.491,227.75,109.491z M227.75,205.009c-23.026,0-41.759-18.733-41.759-41.759s18.733-41.759,41.759-41.759
		s41.76,18.733,41.76,41.759S250.776,205.009,227.75,205.009z"/>
	<circle cx="150.25" cy="235.25" r="31.963"/>
	<circle cx="217.369" cy="276.632" r="20.304"/>
</g>
</svg>
